<?xml version="1.0" standalone="no"?>
<!DOCTYPE svg PUBLIC "-//W3C//DTD SVG 20010904//EN"
 "http://www.w3.org/TR/2001/REC-SVG-20010904/DTD/svg10.dtd">
<svg version="1.0" xmlns="http://www.w3.org/2000/svg"
 width="108.000000pt" height="57.000000pt" viewBox="0 0 108.000000 57.000000"
 preserveAspectRatio="xMidYMid meet">

<g transform="translate(0.000000,57.000000) scale(0.100000,-0.100000)"
fill="#000000" stroke="none">
<path d="M0 285 l0 -285 540 0 540 0 0 285 0 285 -540 0 -540 0 0 -285z m240
96 l0 -39 40 5 c47 7 64 -5 81 -54 9 -27 9 -45 0 -74 -15 -51 -53 -71 -115
-63 l-46 7 0 128 c0 122 1 129 20 129 17 0 20 -7 20 -39z m505 -91 c0 -111 -2
-125 -17 -128 -16 -3 -18 8 -18 128 0 120 2 131 18 128 15 -3 17 -17 17 -128z
m205 0 l0 -130 -27 1 c-16 1 -39 -1 -53 -5 -60 -16 -106 67 -76 138 17 41 47
60 87 54 28 -4 29 -3 29 34 0 31 3 38 20 38 19 0 20 -7 20 -130z m-300 100 c0
-13 -7 -20 -20 -20 -13 0 -20 7 -20 20 0 13 7 20 20 20 13 0 20 -7 20 -20z
m-210 -103 c0 -80 16 -107 53 -90 24 11 26 18 29 80 2 55 6 68 21 71 15 3 17
-6 17 -92 l0 -96 -27 1 c-16 1 -40 -1 -54 -5 -18 -5 -32 -2 -49 12 -20 16 -25
31 -28 85 -5 75 0 97 23 97 12 0 15 -13 15 -63z m210 -32 c0 -88 -1 -95 -20
-95 -18 0 -20 7 -20 88 0 90 3 102 27 102 10 0 13 -22 13 -95z"/>
<path d="M252 302 c-9 -6 -12 -26 -10 -58 3 -47 4 -49 33 -49 60 0 74 106 15
113 -14 1 -31 -2 -38 -6z"/>
<path d="M841 301 c-20 -13 -19 -77 2 -98 13 -14 21 -14 42 -5 22 10 25 18 25
62 0 48 -1 50 -27 50 -16 0 -35 -4 -42 -9z"/>
</g>
</svg>
